Coordinates
version=1
nRows=8
nColumns=40
inDegrees=yes
endheader
time	pelvis_tilt	pelvis_list	pelvis_rotation	pelvis_tx	pelvis_ty	pelvis_tz	hip_flexion_r	hip_adduction_r	hip_rotation_r	knee_angle_r	knee_angle_r_beta	ankle_angle_r	subtalar_angle_r	mtp_angle_r	hip_flexion_l	hip_adduction_l	hip_rotation_l	knee_angle_l	knee_angle_l_beta	ankle_angle_l	subtalar_angle_l	mtp_angle_l	lumbar_extension	lumbar_bending	lumbar_rotation	arm_flex_r	arm_add_r	arm_rot_r	elbow_flex_r	pro_sup_r	wrist_flex_r	wrist_dev_r	arm_flex_l	arm_add_l	arm_rot_l	elbow_flex_l	pro_sup_l	wrist_flex_l	wrist_dev_l
1760625426.08400011	      2.20986214	     -0.08304593	      1.83854180	     -0.04199192	      0.97057629	     -0.01044305	     80.00000000	     -7.00000000	      0.00000000	     80.00000000	      1.39626340	      0.00000000	      0.00000000	      0.00000000	     80.00000000	     -7.00000000	      0.00000000	     80.00000000	      1.39626340	      0.00000000	      0.00000000	      0.00000000	     -1.18479355	     -2.29074966	      1.99191475	      7.87552777	    -21.97275112	      6.93500019	     30.36723632	    114.40638462	    -37.10685918	      4.21749659	      0.68294627	    -11.05266754	      4.80543815	     69.15213886	    115.69675983	    -16.62408844	     12.77883427
1760625426.11800003	      2.16906582	     -0.08513064	      1.81506056	     -0.03820813	      0.97197650	     -0.01175743	     80.00000000	     -7.00000000	      0.00000000	     80.00000000	      1.39626340	      0.00000000	      0.00000000	      0.00000000	     80.00000000	     -7.00000000	      0.00000000	     80.00000000	      1.39626340	      0.00000000	      0.00000000	      0.00000000	     -1.31312471	     -2.34327096	      1.81218797	      7.98451212	    -22.15267003	      5.57161863	     32.80320989	    115.90453583	    -37.29420429	      5.40669369	      0.60349082	    -10.91613290	      3.84758625	     71.76481445	    116.09534980	    -16.50345479	     13.14143511
1760625426.15100002	      2.14552791	     -0.09400788	      1.81612465	     -0.03613102	      0.97318310	     -0.01269070	     80.00000000	     -7.00000000	      0.00000000	     80.00000000	      1.39626340	      0.00000000	      0.00000000	      0.00000000	     80.00000000	     -7.00000000	      0.00000000	     80.00000000	      1.39626340	      0.00000000	      0.00000000	      0.00000000	     -1.37784896	     -2.30437874	      1.47340688	      7.71825293	    -22.20554652	      3.45633845	     36.59847237	    118.49498058	    -37.32667579	      7.25353987	      0.40751552	    -10.59015757	      2.55631119	     74.92485820	    116.78800962	    -16.33803693	     13.48723613
1760625426.18499994	      2.12768124	     -0.09779898	      1.81239788	     -0.03281246	      0.97391700	     -0.01303399	     80.00000000	     -7.00000000	      0.00000000	     80.00000000	      1.39626340	      0.00000000	      0.00000000	      0.00000000	     80.00000000	     -7.00000000	      0.00000000	     80.00000000	      1.39626340	      0.00000000	      0.00000000	      0.00000000	     -1.34870605	     -2.36993702	      1.48071156	      7.13034085	    -21.94403022	      1.27359128	     40.04177394	    121.12072430	    -36.94690539	      9.16521159	      0.32893203	    -10.60468319	      2.10306346	     76.77711476	    116.98534792	    -16.32030432	     13.36855626
1760625426.21799994	      2.09344508	     -0.09530499	      1.81925223	     -0.02791802	      0.97614868	     -0.01317119	     80.00000000	     -7.00000000	      0.00000000	     80.00000000	      1.39626340	      0.00000000	      0.00000000	      0.00000000	     80.00000000	     -7.00000000	      0.00000000	     80.00000000	      1.39626340	      0.00000000	      0.00000000	      0.00000000	     -1.83740572	     -2.45322915	      2.01158180	      6.90180584	    -21.46921226	     -1.46416861	     43.76836712	    124.14446749	    -36.16059289	     11.50297167	      0.99501798	    -10.71749156	      2.45854992	     78.45019759	    117.09264389	    -16.03039847	     13.32436003
1760625426.25099993	      2.09167563	     -0.09836235	      1.86885494	     -0.02432415	      0.97799517	     -0.01446695	     80.00000000	     -7.00000000	      0.00000000	     80.00000000	      1.39626340	      0.00000000	      0.00000000	      0.00000000	     80.00000000	     -7.00000000	      0.00000000	     80.00000000	      1.39626340	      0.00000000	      0.00000000	      0.00000000	     -2.40789940	     -2.43593845	      1.98127975	      6.57630114	    -20.51950963	     -4.14129530	     48.80412368	    128.13870170	    -34.83961645	     14.47039648	      1.60264945	    -11.06844543	      2.45191942	     80.59010257	    117.45166339	    -15.16303670	     13.60414330
1760625426.28500009	      2.06540397	     -0.10290717	      1.89883586	     -0.02462531	      0.98085650	     -0.01619183	     80.00000000	     -7.00000000	      0.00000000	     80.00000000	      1.39626340	      0.00000000	      0.00000000	      0.00000000	     80.00000000	     -7.00000000	      0.00000000	     80.00000000	      1.39626340	      0.00000000	      0.00000000	      0.00000000	     -2.59127465	     -2.35551358	      1.95537545	      6.18303590	    -19.67033367	     -5.76937927	     52.51628940	    131.16801178	    -33.57714080	     16.80723638	      1.59762587	    -11.31983146	      2.42675252	     82.33715216	    117.99944765	    -14.49085748	     13.98410758
1760625426.31800008	      2.05867112	     -0.09496529	      1.91725901	     -0.02394374	      0.98389780	     -0.01746203	     80.00000000	     -7.00000000	      0.00000000	     80.00000000	      1.39626340	      0.00000000	      0.00000000	      0.00000000	     80.00000000	     -7.00000000	      0.00000000	     80.00000000	      1.39626340	      0.00000000	      0.00000000	      0.00000000	     -2.57151544	     -2.13776375	      2.05795500	      5.52611737	    -18.84828277	     -7.28660922	     56.21424627	    134.19892497	    -31.95085559	     19.13212600	      1.23569348	    -11.33303239	      2.39178861	     84.01864639	    118.56526001	    -13.91479249	     14.29429973
